<svg viewBox="0 0 520 340" xmlns="http://www.w3.org/2000/svg">
  <defs>
    <linearGradient id="g-blue-f" x1="0" y1="0" x2="0" y2="1"><stop offset="0%" stop-color="#7ba0e0"/><stop offset="100%" stop-color="#4a6eb8"/></linearGradient>
    <linearGradient id="g-blue-s" x1="0" y1="0" x2="1" y2="0"><stop offset="0%" stop-color="#3a5ea8"/><stop offset="100%" stop-color="#2a4e98"/></linearGradient>
    <linearGradient id="g-blue-t" x1="0" y1="0" x2="0" y2="1"><stop offset="0%" stop-color="#9ab8f0"/><stop offset="100%" stop-color="#7a98d8"/></linearGradient>
    <linearGradient id="g-purp-f" x1="0" y1="0" x2="0" y2="1"><stop offset="0%" stop-color="#b080d8"/><stop offset="100%" stop-color="#7850b0"/></linearGradient>
    <linearGradient id="g-purp-s" x1="0" y1="0" x2="1" y2="0"><stop offset="0%" stop-color="#6040a0"/><stop offset="100%" stop-color="#503090"/></linearGradient>
    <linearGradient id="g-purp-t" x1="0" y1="0" x2="0" y2="1"><stop offset="0%" stop-color="#c898e8"/><stop offset="100%" stop-color="#a870c8"/></linearGradient>
    <linearGradient id="g-pink-f" x1="0" y1="0" x2="0" y2="1"><stop offset="0%" stop-color="#f06090"/><stop offset="100%" stop-color="#c02060"/></linearGradient>
    <linearGradient id="g-pink-s" x1="0" y1="0" x2="1" y2="0"><stop offset="0%" stop-color="#a01050"/><stop offset="100%" stop-color="#880840"/></linearGradient>
    <linearGradient id="g-pink-t" x1="0" y1="0" x2="0" y2="1"><stop offset="0%" stop-color="#f888a8"/><stop offset="100%" stop-color="#e06080"/></linearGradient>
    <linearGradient id="g-gold-f" x1="0" y1="0" x2="0" y2="1"><stop offset="0%" stop-color="#f0c030"/><stop offset="100%" stop-color="#c08010"/></linearGradient>
    <linearGradient id="g-gold-s" x1="0" y1="0" x2="1" y2="0"><stop offset="0%" stop-color="#a06000"/><stop offset="100%" stop-color="#885000"/></linearGradient>
    <linearGradient id="g-gold-t" x1="0" y1="0" x2="0" y2="1"><stop offset="0%" stop-color="#f8d860"/><stop offset="100%" stop-color="#e0b040"/></linearGradient>
    <filter id="ps-shadow" x="-20%" y="-20%" width="140%" height="140%">
      <feDropShadow dx="0" dy="12" stdDeviation="16" flood-color="rgba(0,0,0,0.12)"/>
    </filter>
  </defs>
  <path d="M 260 18 C 370 2 460 65 455 165 C 450 268 370 335 260 330 C 150 325 45 268 42 170 C 38 70 148 34 260 18 Z" fill="#fde4d2"/>
  <g transform="translate(260,172) rotate(-14) translate(-185,-130)">
    <rect x="10" y="12" width="360" height="248" rx="14" fill="rgba(0,0,0,0.09)" filter="url(#ps-shadow)"/>
    <rect x="0" y="0" width="360" height="248" rx="14" fill="white" stroke="#ede6de" stroke-width="1.2"/>
    <rect x="18" y="22" width="140" height="7" rx="3.5" fill="#d0c8e8" opacity=".65"/>
    <rect x="18" y="36" width="100" height="7" rx="3.5" fill="#d0c8e8" opacity=".45"/>
    <rect x="18" y="50" width="120" height="6" rx="3" fill="#e8d0b8" opacity=".6"/>
    <rect x="18" y="62" width="80" height="6" rx="3" fill="#d0c8e8" opacity=".4"/>
    <rect x="18" y="74" width="110" height="5" rx="2.5" fill="#e8d0b8" opacity=".5"/>
    <rect x="165" y="22" width="48" height="7" rx="3.5" fill="#e84080" opacity=".7"/>
    <rect x="165" y="36" width="32" height="7" rx="3.5" fill="#e84080" opacity=".5"/>
    <rect x="165" y="50" width="40" height="6" rx="3" fill="#e84080" opacity=".35"/>
    <rect x="130" y="185" width="90" height="5" rx="2.5" fill="#d0c8e8" opacity=".5"/>
    <rect x="130" y="196" width="60" height="5" rx="2.5" fill="#e8d0b8" opacity=".55"/>
    <rect x="130" y="207" width="110" height="5" rx="2.5" fill="#e84080" opacity=".3"/>
    <rect x="130" y="218" width="75" height="5" rx="2.5" fill="#d0c8e8" opacity=".4"/>
    <rect x="130" y="229" width="55" height="5" rx="2.5" fill="#e8d0b8" opacity=".35"/>
    <g transform="translate(297,54)">
      <path d="M0,0 L44,0 A44,44 0 0,1 15.2,41.6 Z" fill="#7ba0e0"/>
      <path d="M0,0 L15.2,41.6 A44,44 0 0,1 -30.5,32.2 Z" fill="#b080d8"/>
      <path d="M0,0 L-30.5,32.2 A44,44 0 0,1 -44,-0.8 Z" fill="#e84080"/>
      <path d="M0,0 L-44,-0.8 A44,44 0 0,1 0,-44 Z" fill="#f0c030"/>
      <path d="M0,0 L0,-44 A44,44 0 0,1 44,0 Z" fill="#4a6eb8"/>
      <circle cx="0" cy="0" r="16" fill="white"/>
    </g>
    <g transform="translate(62,200)">
      <circle cx="0" cy="0" r="34" fill="none" stroke="#ede6de" stroke-width="10"/>
      <circle cx="0" cy="0" r="34" fill="none" stroke="#7ba0e0" stroke-width="10" stroke-dasharray="56 158" stroke-dashoffset="40" transform="rotate(-90)"/>
      <circle cx="0" cy="0" r="34" fill="none" stroke="#b080d8" stroke-width="10" stroke-dasharray="40 158" stroke-dashoffset="-16" transform="rotate(-90)"/>
      <circle cx="0" cy="0" r="34" fill="none" stroke="#e84080" stroke-width="10" stroke-dasharray="28 158" stroke-dashoffset="-56" transform="rotate(-90)"/>
      <circle cx="0" cy="0" r="34" fill="none" stroke="#f0c030" stroke-width="10" stroke-dasharray="22 158" stroke-dashoffset="-84" transform="rotate(-90)"/>
      <circle cx="0" cy="0" r="16" fill="white"/>
    </g>
    <circle cx="220" cy="95" r="5" fill="#e84080"/>
    <circle cx="230" cy="78" r="3.5" fill="#e84080" opacity=".6"/>
    <line x1="220" y1="95" x2="230" y2="78" stroke="#e84080" stroke-width="1.5" opacity=".5"/>
    <rect x="100" y="70" width="52" height="160" rx="4" fill="url(#g-blue-f)"/>
    <polygon points="152,70 168,60 168,230 152,230" fill="url(#g-blue-s)"/>
    <polygon points="100,70 152,70 168,60 116,60" fill="url(#g-blue-t)"/>
    <rect x="160" y="110" width="52" height="120" rx="4" fill="url(#g-purp-f)"/>
    <polygon points="212,110 228,100 228,230 212,230" fill="url(#g-purp-s)"/>
    <polygon points="160,110 212,110 228,100 176,100" fill="url(#g-purp-t)"/>
    <rect x="68" y="182" width="38" height="48" rx="3" fill="url(#g-pink-f)"/>
    <polygon points="106,182 122,172 122,230 106,230" fill="url(#g-pink-s)"/>
    <polygon points="68,182 106,182 122,172 84,172" fill="url(#g-pink-t)"/>
    <rect x="220" y="160" width="52" height="70" rx="4" fill="url(#g-gold-f)"/>
    <polygon points="272,160 288,150 288,230 272,230" fill="url(#g-gold-s)"/>
    <polygon points="220,160 272,160 288,150 236,150" fill="url(#g-gold-t)"/>
    <line x1="60" y1="230" x2="295" y2="230" stroke="#ddd0c8" stroke-width="1.5"/>
  </g>
</svg>
